<svg id="Logo_c贸pia" data-name="Logo c贸pia" xmlns="http://www.w3.org/2000/svg" viewBox="0 0 859 748"><defs><style>.cls-1,.cls-4{fill:#fff;}.cls-1{stroke:#1e998f;stroke-width:19px;}.cls-1,.cls-12{stroke-miterlimit:10;}.cls-2{fill:#13387d;}.cls-3{fill:#0a0849;}.cls-5{fill:#00c7db;}.cls-6{fill:#ffc700;}.cls-7{fill:#ea2b00;}.cls-8{fill:#ffa319;}.cls-9{fill:#ad0000;}.cls-10{fill:#ffd233;}.cls-11{fill:#ffa217;}.cls-12{fill:none;stroke:#00907c;stroke-width:16px;}.cls-13{fill:#e1682d;}.cls-14{fill:#072225;}.cls-15{fill:#074147;}.cls-16{fill:#ccffd9;}.cls-17{fill:#3b868e;}.cls-18{fill:#00907c;}</style></defs><title>Logo UrbanFix2</title><g id="Camada_30" data-name="Camada 30"><ellipse class="cls-1" cx="420.5" cy="374" rx="409" ry="364.5"/></g><g id="Camada_18" data-name="Camada 18"><path class="cls-2" d="M539.25,405H431.81a19.08,19.08,0,0,0-19,19V679.41s0,.05,0,.08q17.23,10.12,35.66,19h90.8a19.08,19.08,0,0,0,19-19V424A19.08,19.08,0,0,0,539.25,405Z" transform="translate(-287 -22)"/><rect class="cls-3" x="198.53" y="383" width="72.75" height="293.44" rx="21.15" ry="21.15"/></g><g id="Camada_19" data-name="Camada 19"><rect class="cls-2" x="393.38" y="399" width="218.25" height="277.44" rx="18.02" ry="18.02"/><rect class="cls-3" x="502.5" y="399" width="109.12" height="277.44" rx="18.46" ry="18.46"/></g><g id="Camada_27" data-name="Camada 27"><rect class="cls-4" x="422.2" y="419.04" width="160.05" height="36.04"/><rect class="cls-4" x="422.2" y="481.04" width="160.05" height="36.04"/><rect class="cls-4" x="423.2" y="543.04" width="160.05" height="36.04"/></g><g id="Camada_28" data-name="Camada 28"><rect class="cls-5" x="503.23" y="481" width="80.02" height="36"/><rect class="cls-5" x="502.23" y="419" width="80.02" height="36"/><rect class="cls-5" x="503.26" y="543" width="80.02" height="36"/></g><g id="Camada_24" data-name="Camada 24"><rect class="cls-6" x="169.43" y="588.92" width="58.2" height="56.63"/><rect class="cls-7" x="293.1" y="599.22" width="80.02" height="46.33"/><rect class="cls-8" x="198.53" y="588.92" width="29.1" height="56.63"/><rect class="cls-9" x="329.48" y="599.22" width="43.65" height="46.33"/><rect class="cls-6" x="140.33" y="408.74" width="50.92" height="20.59"/><rect class="cls-10" x="140.33" y="449.92" width="50.92" height="20.59"/><rect class="cls-10" x="140.33" y="491.11" width="50.92" height="20.59"/><rect class="cls-6" x="140.33" y="532.29" width="50.92" height="20.59"/><rect class="cls-8" x="205.81" y="408.74" width="50.92" height="20.59"/><rect class="cls-8" x="205.81" y="449.92" width="50.92" height="20.59"/><rect class="cls-8" x="205.81" y="491.11" width="58.2" height="20.59"/><rect class="cls-8" x="205.81" y="532.29" width="50.92" height="20.59"/></g><g id="Camada_22" data-name="Camada 22"><rect class="cls-6" x="256.73" y="465.37" width="152.77" height="205.92" rx="12.47" ry="12.47"/><rect class="cls-11" x="329.48" y="465.37" width="80.02" height="205.92" rx="15.42" ry="15.42"/></g><g id="Camada_17_c贸pia" data-name="Camada 17 c贸pia"><path class="cls-12" d="M682.5,27" transform="translate(-287 -22)"/></g><g id="Camada_25" data-name="Camada 25"><rect class="cls-13" x="285.83" y="599.22" width="87.3" height="46.33"/><rect class="cls-9" x="329.48" y="599.22" width="43.65" height="46.33"/><rect class="cls-4" x="463" y="594.22" width="94.13" height="46.33"/><polyline class="cls-5" points="503 640.55 503 594.22 557.13 594.22 557.13 640.55"/></g><g id="Camada_26" data-name="Camada 26"><rect class="cls-13" x="271.28" y="475.66" width="43.65" height="25.74"/><rect class="cls-13" x="271.28" y="516.85" width="43.65" height="25.74"/><rect class="cls-13" x="271.28" y="558.03" width="43.65" height="25.74"/><rect class="cls-9" x="336.75" y="475.66" width="43.65" height="25.74"/><rect class="cls-9" x="336.75" y="516.85" width="43.65" height="25.74"/><rect class="cls-9" x="336.75" y="558.03" width="43.65" height="25.74"/></g><g id="Camada_23" data-name="Camada 23"><path class="cls-14" d="M1053.62,375.9a412.27,412.27,0,0,0-77.82,67.47l.59,223.93,78-.2Z" transform="translate(-287 -22)"/><path class="cls-13" d="M826.56,667.55H420.44A15.47,15.47,0,0,0,407,675.43a475.45,475.45,0,0,0,42.44,23H826.56a15.44,15.44,0,0,0,0-30.89Z" transform="translate(-287 -22)"/><path class="cls-9" d="M971.29,668.65a15.39,15.39,0,0,0-1.73-.1H675.44a15.44,15.44,0,0,0,0,30.89H916.55A470.89,470.89,0,0,0,971.29,668.65Z" transform="translate(-287 -22)"/><path class="cls-15" d="M1054,375H902V671h65.1a415.81,415.81,0,0,0,86.9-73.07Z" transform="translate(-287 -22)"/><polygon class="cls-15" points="658 391.6 690 196.4 722 391.6 690 423.6 658 391.6"/><rect class="cls-15" x="640" y="293" width="98" height="96"/><rect class="cls-16" x="632.2" y="372.04" width="55.8" height="36.04"/><rect class="cls-16" x="632.2" y="439.04" width="55.8" height="36.04"/><rect class="cls-16" x="631.2" y="507.04" width="55.8" height="36.04"/><path class="cls-14" d="M976,666.19a412.27,412.27,0,0,0,78-67.26V375H976Z" transform="translate(-287 -22)"/><rect class="cls-14" x="689" y="293" width="48" height="96"/><polygon class="cls-14" points="690 196 689 293 705.84 293 690 196"/><rect class="cls-17" x="700.2" y="372.04" width="55.8" height="36.04"/><rect class="cls-17" x="700.2" y="439.04" width="55.8" height="36.04"/><rect class="cls-17" x="700.2" y="506.04" width="55.8" height="36.04"/><path class="cls-16" d="M941,667.07h32.17A434.65,434.65,0,0,0,1011,639.15V631H941Z" transform="translate(-287 -22)"/><path class="cls-17" d="M975,667.07h3.68q16.87-11.21,32.32-23.66V631H975Z" transform="translate(-287 -22)"/><path class="cls-13" d="M406.85,699.29l227.77-2.53c3.22,0,6-3.26,7.45-8A273.4,273.4,0,0,0,618,666.05l-211.5,2.35c-4.76.05-8.58,7-8.49,15.54S402.09,699.34,406.85,699.29Z" transform="translate(-287 -22)"/><path class="cls-9" d="M753.88,696.07a15.39,15.39,0,0,0,1.73.12l294.1,2.39a15.44,15.44,0,1,0,.25-30.89l-241.1-2A470.89,470.89,0,0,0,753.88,696.07Z" transform="translate(-287 -22)"/><path class="cls-17" d="M1011.14,631.18l-3.68,0q-17,11.08-32.51,23.4l-.1,12.38,36,.28Z" transform="translate(-287 -22)"/></g><circle class="cls-18" cx="145.5" cy="224.5" r="24.5"/><circle class="cls-18" cx="329.5" cy="435.5" r="24.5"/><circle class="cls-18" cx="684.5" cy="102.5" r="24.5"/><circle class="cls-18" cx="24.5" cy="435.5" r="24.5"/><circle class="cls-18" cx="834.5" cy="402.5" r="24.5"/><polyline class="cls-12" points="19 444 145 221 331 446 684 96 841.13 417.79"/></svg>